<svg width="128" height="128" viewBox="0 0 512 512" xmlns="http://www.w3.org/2000/svg">
  <!-- Fondo circular con gradiente -->
  <defs>
    <linearGradient id="bgGradient" x1="0%" y1="0%" x2="100%" y2="100%">
      <stop offset="0%" style="stop-color:#f97316;stop-opacity:1" />
      <stop offset="100%" style="stop-color:#ec4899;stop-opacity:1" />
    </linearGradient>
    <linearGradient id="cupcakeGradient" x1="0%" y1="0%" x2="100%" y2="100%">
      <stop offset="0%" style="stop-color:#fbbf24;stop-opacity:1" />
      <stop offset="100%" style="stop-color:#f59e0b;stop-opacity:1" />
    </linearGradient>
    <linearGradient id="frostingGradient" x1="0%" y1="0%" x2="100%" y2="100%">
      <stop offset="0%" style="stop-color:#f472b6;stop-opacity:1" />
      <stop offset="100%" style="stop-color:#ec4899;stop-opacity:1" />
    </linearGradient>
  </defs>
  
  <!-- Fondo circular -->
  <circle cx="256" cy="256" r="240" fill="url(#bgGradient)" stroke="#fff" stroke-width="8"/>
  
  <!-- Base del cupcake -->
  <ellipse cx="256" cy="320" rx="80" ry="40" fill="url(#cupcakeGradient)"/>
  
  <!-- Cuerpo del cupcake -->
  <path d="M 176 320 Q 256 200 336 320 L 336 360 Q 256 280 176 360 Z" fill="url(#cupcakeGradient)"/>
  
  <!-- Frosting -->
  <path d="M 200 280 Q 256 180 312 280 Q 256 200 200 280" fill="url(#frostingGradient)"/>
  
  <!-- Decoración del frosting -->
  <circle cx="220" cy="260" r="8" fill="#fbbf24"/>
  <circle cx="256" cy="250" r="6" fill="#fbbf24"/>
  <circle cx="292" cy="260" r="8" fill="#fbbf24"/>
  
  <!-- Líneas decorativas en la base -->
  <ellipse cx="256" cy="340" rx="60" ry="15" fill="none" stroke="#f59e0b" stroke-width="3"/>
  
  <!-- Sombra -->
  <ellipse cx="256" cy="380" rx="70" ry="20" fill="#000" opacity="0.1"/>
</svg>